<svg height="480pt" viewBox="0 -4 480 480" width="480pt" xmlns="http://www.w3.org/2000/svg"><path d="m40 0v464h120v-432zm0 0" fill="#004fac"/><path d="m280 64-120-32v432h120zm0 0" fill="#175fb4"/><path d="m280 112v352h80v-332zm0 0" fill="#d1e7f8"/><path d="m440 152-80-20v332h80zm0 0" fill="#d9ebf9"/><path d="m96 368h64v96h-64zm0 0" fill="#6d6e71"/><path d="m160 368h64v96h-64zm0 0" fill="#939598"/><path d="m104 288h32v32h-32zm0 0" fill="#f1f2f2"/><path d="m184 288h32v32h-32zm0 0" fill="#f1f2f2"/><path d="m312 304h32v32h-32zm0 0" fill="#2488ff"/><path d="m376 304h32v32h-32zm0 0" fill="#2488ff"/><path d="m312 240h32v32h-32zm0 0" fill="#2488ff"/><path d="m376 240h32v32h-32zm0 0" fill="#2488ff"/><path d="m312 176h32v32h-32zm0 0" fill="#2488ff"/><path d="m376 176h32v32h-32zm0 0" fill="#2488ff"/><g fill="#f1f2f2"><path d="m104 224h32v32h-32zm0 0"/><path d="m184 224h32v32h-32zm0 0"/><path d="m104 160h32v32h-32zm0 0"/><path d="m184 160h32v32h-32zm0 0"/><path d="m104 96h32v32h-32zm0 0"/><path d="m184 96h32v32h-32zm0 0"/></g><path d="m360 384h32v80h-32zm0 0" fill="#a7a8ab"/><path d="m328 384h32v80h-32zm0 0" fill="#939598"/><path d="m0 456h480v16h-480zm0 0" fill="#21409a"/></svg>