<svg id="Group_10" data-name="Group 10" xmlns="http://www.w3.org/2000/svg" width="75" height="75" viewBox="0 0 75 75">
  <rect id="Rectangle_194" data-name="Rectangle 194" width="75" height="75" rx="11" fill="#ebebeb"/>
  <g id="security" transform="translate(12 18)">
    <g id="Group_11" data-name="Group 11">
      <path id="Path_112" data-name="Path 112" d="M236,301.425l1.993,16.006c12.424,0,22.5-3.583,22.5-16.006Z" transform="translate(-212.488 -276.367)" fill="#323c3c"/>
      <path id="Path_113" data-name="Path 113" d="M30.206,301.425c0,12.424,10.071,16.006,22.5,16.006V301.425Z" transform="translate(-27.197 -276.367)" fill="#495959"/>
      <path id="Path_114" data-name="Path 114" d="M236,237.16l1.993,9.6a75.357,75.357,0,0,0,22.5-3.2v-6.4Z" transform="translate(-212.488 -218.505)" fill="#2d2d2d"/>
      <path id="Path_115" data-name="Path 115" d="M30.206,237.16v6.4a75.356,75.356,0,0,0,22.5,3.2v-9.6Z" transform="translate(-27.197 -218.505)" fill="#323c3c"/>
      <path id="Path_116" data-name="Path 116" d="M237.993,208.785a75.356,75.356,0,0,0,22.5-3.2l1.317-3.494c-2.841.87-13.6,1.216-25.8,1.216Z" transform="translate(-212.488 -186.929)" fill="#ffe529"/>
      <path id="Path_117" data-name="Path 117" d="M16.988,202.091l1.317,3.494a75.356,75.356,0,0,0,22.5,3.2v-5.479C28.6,203.307,19.829,202.961,16.988,202.091Z" transform="translate(-15.296 -186.93)" fill="#fff39d"/>
      <path id="Path_118" data-name="Path 118" d="M237.993,49.911,236,60.225l1.993,8.055A84.112,84.112,0,0,0,261.8,65.072l1.692-4.49S256.012,49.911,237.993,49.911Z" transform="translate(-212.488 -49.911)" fill="#ffce00"/>
      <path id="Path_119" data-name="Path 119" d="M25.5,49.911C7.485,49.911,0,60.582,0,60.582l1.692,4.49A84.111,84.111,0,0,0,25.5,68.28Z" transform="translate(0 -49.911)" fill="#ffe529"/>
      <path id="Path_120" data-name="Path 120" d="M244.892,145.963l-1.58-7.527h-5.319L236,146.449l1.993,8.013a7.05,7.05,0,0,0,6.9-8.5Z" transform="translate(-212.488 -129.617)" fill="#b4d2d7"/>
      <path id="Path_121" data-name="Path 121" d="M186.954,138.436l-1.58,7.527a7.05,7.05,0,0,0,6.9,8.5V138.436Z" transform="translate(-166.769 -129.617)" fill="#e1ebf0"/>
      <path id="Path_122" data-name="Path 122" d="M241.145,176.983a4.044,4.044,0,0,0,.822-3.394l-1.082-5.152h-2.893L236,173.46l1.993,5.024A4.044,4.044,0,0,0,241.145,176.983Z" transform="translate(-212.488 -156.628)" fill="#e1ebf0"/>
      <path id="Path_123" data-name="Path 123" d="M216.4,168.436l-1.082,5.153a4.061,4.061,0,0,0,3.974,4.9V168.436Z" transform="translate(-193.785 -156.628)" fill="#fff5f5"/>
    </g>
  </g>
</svg>
