<svg xmlns="http://www.w3.org/2000/svg" width="75" height="75" viewBox="0 0 75 75">
  <g id="flat" transform="translate(177.5 72.5)">
    <rect id="Rectangle_1509" data-name="Rectangle 1509" width="75" height="75" rx="11" transform="translate(-177.5 -72.5)" fill="#ebebeb"/>
    <g id="Group_116" data-name="Group 116" transform="translate(-187.635 -83)">
      <path id="Path_319" data-name="Path 319" d="M32.6,140.437a4.065,4.065,0,0,0-6.97,2.72,3.251,3.251,0,1,0,4.589,4.149,4.068,4.068,0,0,0,1.815-.708,3.251,3.251,0,1,0,.566-6.161Z" transform="translate(-0.001 -103.51)" fill="#02a437"/>
      <path id="Path_320" data-name="Path 320" d="M74.29,176.625a.813.813,0,0,1-.757-.518l-1.477-3.785a.813.813,0,1,1,1.514-.591l1.478,3.785a.813.813,0,0,1-.757,1.108Z" transform="translate(-43.124 -132.259)" fill="#027e2a"/>
      <path id="Path_321" data-name="Path 321" d="M102.262,176.36c-.025,0-.05,0-.075,0a.813.813,0,0,1-.735-.884,6.3,6.3,0,0,1,1.591-3.628.813.813,0,1,1,1.206,1.09,4.668,4.668,0,0,0-1.178,2.687A.813.813,0,0,1,102.262,176.36Z" transform="translate(-69.581 -132.586)" fill="#027e2a"/>
      <path id="Path_322" data-name="Path 322" d="M44.525,203.676a.81.81,0,0,1-.545-.21,4.667,4.667,0,0,0-2.687-1.178.813.813,0,0,1,.149-1.619,6.3,6.3,0,0,1,3.628,1.591.813.813,0,0,1-.545,1.416Z" transform="translate(-14.873 -158.72)" fill="#027e2a"/>
      <path id="Path_323" data-name="Path 323" d="M79.008,229.26l-6.057,2.364-5.837-11.7a4.453,4.453,0,1,1,8.262-3.224Z" transform="translate(-38.314 -170.234)" fill="#fd9226"/>
      <path id="Path_324" data-name="Path 324" d="M272,24h3.251V46.755H272Z" transform="translate(-222.807)" fill="#026a23"/>
      <path id="Path_325" data-name="Path 325" d="M230.411,90.762a7.011,7.011,0,0,0-.384-1.429L226.438,80,224,80.813l3.481,9.051A8.731,8.731,0,0,1,228.063,93v2.884Z" transform="translate(-179.683 -50.311)" fill="#027226"/>
      <path id="Path_326" data-name="Path 326" d="M255.2,104.964a3.09,3.09,0,0,1,0,3.708l-.011.015a3.454,3.454,0,0,1-2.763,1.382H251a3.454,3.454,0,0,1-2.763-1.382l-.011-.015a3.09,3.09,0,0,1,0-3.708l1.047-1.4V95.884l2.348-5.122.09-.2L255.774,80l2.438.813-3.481,9.051A8.73,8.73,0,0,0,254.149,93v10.568Z" transform="translate(-200.893 -50.311)" fill="#027e2a"/>
      <path id="Path_327" data-name="Path 327" d="M255.2,223.642l-.011.015a3.441,3.441,0,0,1-1.308,1.06l-4.859-.3a3.422,3.422,0,0,1-.781-.756l-.011-.015a3.09,3.09,0,0,1,0-3.708l.072-.1.975-.488,4.876-11.38v10.568l1.047,1.4A3.09,3.09,0,0,1,255.2,223.642Z" transform="translate(-200.893 -165.282)" fill="#027e2a"/>
      <g id="Group_114" data-name="Group 114" transform="translate(28.931 47.91)">
        <path id="Path_328" data-name="Path 328" d="M73.353,279.039a.813.813,0,0,1-.3-1.57l1.514-.591a.813.813,0,0,1,.591,1.514l-1.514.591A.813.813,0,0,1,73.353,279.039Z" transform="translate(-72.539 -275.05)" fill="#e78244"/>
        <path id="Path_329" data-name="Path 329" d="M118.07,261.589a.813.813,0,0,1-.3-1.57l1.514-.591a.813.813,0,0,1,.591,1.514l-1.514.591A.812.812,0,0,1,118.07,261.589Z" transform="translate(-112.714 -259.373)" fill="#e78244"/>
        <path id="Path_330" data-name="Path 330" d="M86.214,306.161a.813.813,0,0,1-.3-1.57l2.146-.813a.813.813,0,1,1,.591,1.514l-2.147.813A.812.812,0,0,1,86.214,306.161Z" transform="translate(-84.093 -299.217)" fill="#e78244"/>
        <path id="Path_331" data-name="Path 331" d="M137.157,291.108a.813.813,0,0,1-.3-1.57l.757-.3a.813.813,0,0,1,.591,1.514l-.757.3a.814.814,0,0,1-.3.056Z" transform="translate(-129.862 -286.158)" fill="#e78244"/>
      </g>
      <path id="Path_332" data-name="Path 332" d="M189,200h1.929a3.454,3.454,0,0,1,3.089,1.91l.67,1.341H192.76a3.454,3.454,0,0,1-3.089-1.909Z" transform="translate(-148.239 -158.121)" fill="#02a437"/>
      <path id="Path_333" data-name="Path 333" d="M220.446,220.5a.813.813,0,0,1-.813-.813,5.785,5.785,0,0,1,4.638-5.657l.079-.016a.813.813,0,1,1,.319,1.594l-.079.016a4.155,4.155,0,0,0-3.331,4.063A.813.813,0,0,1,220.446,220.5Z" transform="translate(-175.76 -170.698)" fill="#8f6934"/>
      <path id="Path_334" data-name="Path 334" d="M255.2,223.642l-.011.015a3.441,3.441,0,0,1-1.308,1.06l-4.859-.3a3.422,3.422,0,0,1-.781-.756l-.011-.015a3.09,3.09,0,0,1,0-3.708l.072-.1.975-.488,4.876-11.38v10.568l1.047,1.4A3.09,3.09,0,0,1,255.2,223.642Z" transform="translate(-200.893 -165.282)" fill="#cbcbcb"/>
      <path id="Path_335" data-name="Path 335" d="M170.488,254a2.4,2.4,0,0,1,2,1.069,1.1,1.1,0,0,0,1.826,0,2.4,2.4,0,0,1,3.871-.168l.191.238a5.282,5.282,0,0,1,.355,6.1l-1.586,2.537a1.678,1.678,0,0,1-2.61.3,1.6,1.6,0,0,0-2.268,0,1.678,1.678,0,0,1-2.61-.3l-1.586-2.537a5.282,5.282,0,0,1,.355-6.1l.191-.238a2.4,2.4,0,0,1,1.874-.9Z" transform="translate(-128.712 -206.636)" fill="#e82f3e"/>
      <path id="Path_336" data-name="Path 336" d="M193.272,284.059a.81.81,0,0,1-.575-.238,2.4,2.4,0,0,1-.451-2.779l.3-.6a.813.813,0,1,1,1.454.727l-.3.6a.781.781,0,0,0,.146.9.813.813,0,0,1-.574,1.388Z" transform="translate(-150.926 -229.99)" fill="#ff6268"/>
      <path id="Path_337" data-name="Path 337" d="M24,392H71.135v4.876H24Z" transform="translate(0 -330.617)" fill="#ea9d2d"/>
      <path id="Path_338" data-name="Path 338" d="M50.438,409.625H48.813a.813.813,0,0,1,0-1.625h1.625a.813.813,0,0,1,0,1.625Z" transform="translate(-21.562 -344.992)" fill="#c38325"/>
      <path id="Path_339" data-name="Path 339" d="M434.438,409.625h-1.625a.813.813,0,1,1,0-1.625h1.625a.813.813,0,1,1,0,1.625Z" transform="translate(-366.554 -344.992)" fill="#c38325"/>
      <path id="Path_340" data-name="Path 340" d="M24,440H71.135v4.876H24Z" transform="translate(0 -373.741)" fill="#fbb540"/>
      <g id="Group_115" data-name="Group 115" transform="translate(26.438 63.008)">
        <path id="Path_341" data-name="Path 341" d="M50.438,457.625H48.813a.813.813,0,0,1,0-1.625h1.625a.813.813,0,0,1,0,1.625Z" transform="translate(-48 -451.124)" fill="#c38325"/>
        <path id="Path_342" data-name="Path 342" d="M242.438,409.625h-1.625a.813.813,0,0,1,0-1.625h1.625a.813.813,0,1,1,0,1.625Z" transform="translate(-220.496 -408)" fill="#c38325"/>
        <path id="Path_343" data-name="Path 343" d="M242.438,457.625h-1.625a.813.813,0,0,1,0-1.625h1.625a.813.813,0,1,1,0,1.625Z" transform="translate(-220.496 -451.124)" fill="#c38325"/>
        <path id="Path_344" data-name="Path 344" d="M434.438,457.625h-1.625a.813.813,0,0,1,0-1.625h1.625a.813.813,0,1,1,0,1.625Z" transform="translate(-392.992 -451.124)" fill="#c38325"/>
      </g>
      <path id="Path_345" data-name="Path 345" d="M352,288.813l.714.714a5.886,5.886,0,0,1,1.724,4.162h2.438v-.813a5.886,5.886,0,0,0-1.724-4.162l-.714-.714Z" transform="translate(-294.681 -237.182)" fill="#027e2a"/>
      <path id="Path_346" data-name="Path 346" d="M404.876,288.813l-.714.714a5.886,5.886,0,0,0-1.724,4.162H400v-.813a5.886,5.886,0,0,1,1.724-4.162l.714-.714Z" transform="translate(-337.805 -237.182)" fill="#027e2a"/>
      <path id="Path_347" data-name="Path 347" d="M326.287,153.142a3.042,3.042,0,0,0-1.1-2.343,3.046,3.046,0,0,0-2.762-3.745,6.093,6.093,0,0,0-10.564,0A3.046,3.046,0,0,0,309.1,150.8a3.046,3.046,0,0,0-.409,4.273,4.063,4.063,0,0,0,6.07,5.137,5.053,5.053,0,0,0,2.382-.972,5.052,5.052,0,0,0,2.382.972,4.063,4.063,0,0,0,6.07-5.137A3.034,3.034,0,0,0,326.287,153.142Z" transform="translate(-255.152 -107.81)" fill="#02a437"/>
      <path id="Path_348" data-name="Path 348" d="M372.775,171.249a.813.813,0,0,1-.766-.542,1.626,1.626,0,0,0-3.066,0,.813.813,0,0,1-1.533-.542,3.252,3.252,0,0,1,6.131,0,.813.813,0,0,1-.766,1.084Z" transform="translate(-308.483 -129.371)" fill="#027e2a"/>
      <path id="Path_349" data-name="Path 349" d="M336.438,212.876a2.438,2.438,0,0,1,0-4.876.813.813,0,0,1,0,1.625.813.813,0,0,0,0,1.625.813.813,0,0,1,0,1.625Z" transform="translate(-278.509 -165.309)" fill="#027e2a"/>
      <path id="Path_350" data-name="Path 350" d="M24,344H71.135v4.876H24Z" transform="translate(0 -287.493)" fill="#fbb540"/>
      <path id="Path_351" data-name="Path 351" d="M50.438,361.625H48.813a.813.813,0,0,1,0-1.625h1.625a.813.813,0,0,1,0,1.625Z" transform="translate(-21.562 -301.868)" fill="#c38325"/>
      <path id="Path_352" data-name="Path 352" d="M434.438,361.625h-1.625a.813.813,0,0,1,0-1.625h1.625a.813.813,0,1,1,0,1.625Z" transform="translate(-366.554 -301.868)" fill="#c38325"/>
      <path id="Path_353" data-name="Path 353" d="M242.438,361.625h-1.625a.813.813,0,0,1,0-1.625h1.625a.813.813,0,1,1,0,1.625Z" transform="translate(-194.058 -301.868)" fill="#c38325"/>
    </g>
  </g>
</svg>
