<svg id="Group_10" data-name="Group 10" xmlns="http://www.w3.org/2000/svg" width="75" height="75" viewBox="0 0 75 75">
  <rect id="Rectangle_194" data-name="Rectangle 194" width="75" height="75" rx="11" fill="#ebebeb"/>
  <g id="parliament" transform="translate(13 13)">
    <path id="Path_127" data-name="Path 127" d="M165.718,15.674a1.458,1.458,0,0,0-.976-1.377l-8.459-2.969V7.952h4.377a1.394,1.394,0,0,0,1.459-1.317V1.366A1.394,1.394,0,0,0,160.66.049h-5.468A1.446,1.446,0,0,0,153.726.5a1.24,1.24,0,0,0-.361.866v9.962L144.905,14.3a1.458,1.458,0,0,0-.976,1.377v1.175h21.788Zm0,0" transform="translate(-129.923 0)" fill="#3d17bc"/>
    <path id="Path_128" data-name="Path 128" d="M424.489,247.994h5.155v-4.4a1.459,1.459,0,0,0-1.459-1.459h-7.392V268.4h7.393a1.459,1.459,0,0,0,1.459-1.459v-4.353h-5.155a1.459,1.459,0,0,1,0-2.918h5.155v-2.918h-5.155a1.459,1.459,0,0,1,0-2.918h5.155v-2.918h-5.155a1.459,1.459,0,0,1,0-2.918Zm0,0" transform="translate(-379.842 -218.57)" fill="#3d17bc"/>
    <path id="Path_129" data-name="Path 129" d="M0,243.592v4.4H5.156a1.459,1.459,0,1,1,0,2.918H0v2.918H5.156a1.459,1.459,0,1,1,0,2.918H0v2.918H5.156a1.459,1.459,0,0,1,0,2.918H0v4.353A1.459,1.459,0,0,0,1.459,268.4H8.852V242.133H1.459A1.459,1.459,0,0,0,0,243.592Zm0,0" transform="translate(0 -218.569)" fill="#3d17bc"/>
    <path id="Path_130" data-name="Path 130" d="M242.342,424.293a1.461,1.461,0,0,0-1.459,1.459v7.072H243.8v-7.072A1.461,1.461,0,0,0,242.342,424.293Zm0,0" transform="translate(-217.441 -383.002)" fill="#3d17bc"/>
    <path id="Path_131" data-name="Path 131" d="M145.745,203.109H122.4a1.459,1.459,0,0,0-1.459,1.459v27.138a1.459,1.459,0,0,0,1.459,1.459h7.3v-7.072a4.377,4.377,0,0,1,8.754,0v7.072h7.295a1.459,1.459,0,0,0,1.459-1.459V204.568a1.459,1.459,0,0,0-1.459-1.459Zm-14.59,14.619h-2.918a1.459,1.459,0,1,1,0-2.918h2.918a1.459,1.459,0,1,1,0,2.918Zm0-5.836h-2.918a1.459,1.459,0,0,1,0-2.918h2.918a1.459,1.459,0,0,1,0,2.918Zm8.754,5.836H136.99a1.459,1.459,0,1,1,0-2.918h2.918a1.459,1.459,0,1,1,0,2.918Zm0-5.836H136.99a1.459,1.459,0,0,1,0-2.918h2.918a1.459,1.459,0,0,1,0,2.918Zm0,0" transform="translate(-109.171 -183.343)" fill="#3d17bc"/>
  </g>
</svg>
