<svg xmlns="http://www.w3.org/2000/svg" width="75" height="75" viewBox="0 0 75 75">
  <g id="tourism" transform="translate(13.281 7.829)">
    <rect id="Rectangle_1499" data-name="Rectangle 1499" width="75" height="75" rx="11" transform="translate(-13.281 -7.829)" fill="#ebebeb"/>
    <g id="Group_99" data-name="Group 99" transform="translate(-1)">
      <path id="Path_256" data-name="Path 256" d="M57.625,39.812A23.312,23.312,0,1,1,34.312,16.5,23.312,23.312,0,0,1,57.625,39.812Z" transform="translate(-9.953 -9.953)" fill="#55a4f9"/>
      <path id="Path_257" data-name="Path 257" d="M163.44,72.119a1.427,1.427,0,0,1,1.427-1.427h13.321a1.427,1.427,0,0,1,0,2.855H164.867A1.427,1.427,0,0,1,163.44,72.119Zm5.988-23.265h7.905a1.427,1.427,0,0,0,0-2.855h-7.905a1.427,1.427,0,1,0,0,2.855ZM183.9,76.4h-9.515a1.427,1.427,0,1,0,0,2.855H183.9a1.427,1.427,0,0,0,0-2.855Zm-13.491,6.756H159.971a1.427,1.427,0,1,0,0,2.855h10.436a1.427,1.427,0,0,0,0-2.855Z" transform="translate(-143.458 -36.646)" fill="#a7d0fc"/>
      <path id="Path_258" data-name="Path 258" d="M112.053,176.5v6.724a.714.714,0,0,1-1.427,0V176.5a.714.714,0,1,1,1.427,0Zm-12.608-.714a.714.714,0,0,0-.714.714v6.724a.714.714,0,1,0,1.427,0V176.5A.714.714,0,0,0,99.446,175.79Zm26.329-18.635a.714.714,0,0,0-.714.714v6.724a.714.714,0,0,0,1.427,0v-6.724A.714.714,0,0,0,125.775,157.155Zm5.709,0a.714.714,0,0,0-.714.714v6.724a.714.714,0,1,0,1.427,0v-6.724A.714.714,0,0,0,131.484,157.155Z" transform="translate(-89.337 -137.225)" fill="#0a3575"/>
      <path id="Path_259" data-name="Path 259" d="M35.432,232.746a2.608,2.608,0,0,1,3.293,3.48,13.769,13.769,0,0,1-1.61,2.755l-6.506,8.682a2.171,2.171,0,0,1-1.737.869H25.505a2.839,2.839,0,0,0-3.51,0H18.628a2.171,2.171,0,0,1-1.737-.869l-6.506-8.682a13.743,13.743,0,0,1-1.672-2.9,2.541,2.541,0,0,1,3.207-3.389A34.238,34.238,0,0,0,35.432,232.746Z" transform="translate(-7.695 -205.423)" fill="#c50048"/>
      <path id="Path_260" data-name="Path 260" d="M31.027,87.074A3.8,3.8,0,0,1,23.8,84.943,18.679,18.679,0,0,0,21.07,71.551a9.828,9.828,0,0,0-4.96-3.87,17.09,17.09,0,0,1,11.3,4.159,13.129,13.129,0,0,1,3.619,15.235ZM4.7,71.84A13.129,13.129,0,0,0,1.083,87.074a3.8,3.8,0,0,0,7.231-2.132,18.679,18.679,0,0,1,2.726-13.392A9.828,9.828,0,0,1,16,67.681,17.09,17.09,0,0,0,4.7,71.84Z" transform="translate(0 -56.264)" fill="#f44545"/>
      <path id="Path_261" data-name="Path 261" d="M99,89.558l-4.536,9.652h-3.51l-4.536-9.652c-2.685-5.714-2.151-13.317,1.276-18.17A9.8,9.8,0,0,1,92.706,67.5a9.8,9.8,0,0,1,5.015,3.887C101.148,76.241,101.682,83.844,99,89.558Z" transform="translate(-76.651 -56.101)" fill="#ffc14f"/>
      <path id="Path_262" data-name="Path 262" d="M92.749,89.195a7.976,7.976,0,0,1-7.987-8.164,17.711,17.711,0,0,1,2.973-9.644A9.8,9.8,0,0,1,92.749,67.5a9.8,9.8,0,0,1,5.015,3.887,17.711,17.711,0,0,1,2.973,9.644A7.976,7.976,0,0,1,92.749,89.195Z" transform="translate(-76.693 -56.101)" fill="#fff36c"/>
      <path id="Path_263" data-name="Path 263" d="M112.732,260.29h2.855v3.93a23.31,23.31,0,0,1-2.855-1.764Zm25.14-18.635v4.092a1.427,1.427,0,0,0,1.427,1.427h2a1.427,1.427,0,0,0,1.427-1.427v-4.092Z" transform="translate(-102.005 -213.684)" fill="#453d83"/>
      <path id="Path_264" data-name="Path 264" d="M134.732,260.29H143.3v4.092a1.427,1.427,0,0,1-1.427,1.427h-2.525a23.179,23.179,0,0,1-4.611-2Zm25.241-18.635v4.092a1.427,1.427,0,0,0,1.427,1.427h1.8a1.427,1.427,0,0,0,1.427-1.427v-4.092Z" transform="translate(-121.912 -213.684)" fill="#5f55af"/>
      <path id="Path_265" data-name="Path 265" d="M108.156,251.92a.714.714,0,0,1-.714.714H94.633a.714.714,0,0,1,0-1.427h12.81A.714.714,0,0,1,108.156,251.92Zm20.519-19.349h-8.8a.714.714,0,1,0,0,1.427h8.8a.714.714,0,0,0,0-1.427Z" transform="translate(-84.982 -205.465)" fill="#fff5f5"/>
      <path id="Path_266" data-name="Path 266" d="M320.289,24.213a1.275,1.275,0,0,1-1.02-.51l-3.82-5.1a7.684,7.684,0,0,1,1.182-10.557,10.318,10.318,0,0,1,13.331,0,7.684,7.684,0,0,1,1.182,10.557l-3.82,5.1a1.274,1.274,0,0,1-1.02.51h-1.977l-.131-.105a1.447,1.447,0,0,0-1.93.105Z" transform="translate(-284.004 -0.096)" fill="#453d83"/>
      <path id="Path_267" data-name="Path 267" d="M330.255,16.062A2.639,2.639,0,0,1,327.61,13.5a11.63,11.63,0,0,0-1.53-5.7A5.2,5.2,0,0,0,323.5,5.5a10.038,10.038,0,0,1,6.665,2.442,7.989,7.989,0,0,1,2.728,5.218A2.649,2.649,0,0,1,330.255,16.062Zm-13.423-8.12A7.989,7.989,0,0,0,314.1,13.16a2.647,2.647,0,1,0,5.28.341,11.63,11.63,0,0,1,1.53-5.7A5.2,5.2,0,0,1,323.5,5.5,10.038,10.038,0,0,0,316.832,7.942Z" transform="translate(-284.205)" fill="#51489a"/>
      <path id="Path_268" data-name="Path 268" d="M371.992,18.45l-2.663,5.667h-2.061l-2.663-5.667a11.22,11.22,0,0,1,.749-10.668A5.755,5.755,0,0,1,368.3,5.5a5.754,5.754,0,0,1,2.944,2.282,11.22,11.22,0,0,1,.749,10.668Z" transform="translate(-329.007)" fill="#ffa90b"/>
      <path id="Path_269" data-name="Path 269" d="M370.236,16.506a4.479,4.479,0,0,1-4.359-5.537,9.452,9.452,0,0,1,1.414-3.186A5.754,5.754,0,0,1,370.236,5.5a5.754,5.754,0,0,1,2.944,2.282,9.455,9.455,0,0,1,1.414,3.186A4.479,4.479,0,0,1,370.236,16.506Z" transform="translate(-330.944)" fill="#ffc14f"/>
    </g>
  </g>
</svg>
