<svg xmlns="http://www.w3.org/2000/svg" width="75" height="75" viewBox="0 0 75 75">
  <g id="car" transform="translate(4.402 -46.893)">
    <rect id="Rectangle_1508" data-name="Rectangle 1508" width="75" height="75" rx="11" transform="translate(-4.402 46.893)" fill="#ebebeb"/>
    <g id="Group_113" data-name="Group 113" transform="translate(7.667 7.964)">
      <path id="Path_304" data-name="Path 304" d="M55.778,78.129a7.383,7.383,0,0,0-1.544-4.119A12.692,12.692,0,0,1,51.772,69.2a58.84,58.84,0,0,0-4.113-8.856,7.1,7.1,0,0,0-5.2-3.429,147.93,147.93,0,0,0-22.356,0,7.111,7.111,0,0,0-5.2,3.429A59,59,0,0,0,10.783,69.2,12.692,12.692,0,0,1,8.321,74.01a7.381,7.381,0,0,0-1.542,4.119c-.156,3.247.785,3.96,1.626,11.307a1.143,1.143,0,0,0,1.137,1.013H53.017a1.144,1.144,0,0,0,1.137-1.013c.236-2.06.937-6.24.937-6.24A15.3,15.3,0,0,0,55.778,78.129Z" transform="translate(-6.076)" fill="#e95353"/>
      <path id="Path_305" data-name="Path 305" d="M94.43,76.02a63.367,63.367,0,0,0-3.872-8.2,6.406,6.406,0,0,0-4.628-3.111,141.922,141.922,0,0,0-22.156,0,6.407,6.407,0,0,0-4.628,3.111,64.476,64.476,0,0,0-3.888,8.2A249.771,249.771,0,0,0,94.43,76.02Z" transform="translate(-49.649 -6.992)" fill="#168de2"/>
      <path id="Path_306" data-name="Path 306" d="M374.709,215.2a7.193,7.193,0,0,0-1.348.592,16.582,16.582,0,0,1-2.186,1.048c-1.254.476-1.467,1.186-1.467,1.186-.038.049-.074.1-.109.148a2,2,0,0,0,1.985,3.054,24.21,24.21,0,0,0,5.471-1.462,1.961,1.961,0,0,0,1.191-1.336c.014-.058.027-.117.038-.173A2.753,2.753,0,0,0,374.709,215.2Z" transform="translate(-331.779 -142.481)" fill="#fff"/>
      <path id="Path_307" data-name="Path 307" d="M420.439,327.857h-2.714a.459.459,0,0,0-.325.783l2.714,2.714a.459.459,0,0,0,.783-.324v-2.714A.458.458,0,0,0,420.439,327.857Z" transform="translate(-374.901 -243.816)" fill="#ffe21f"/>
      <path id="Path_308" data-name="Path 308" d="M417.258,332.816a1.145,1.145,0,0,1-1.139,1.016H410.9v3.031a1.944,1.944,0,0,0,1.944,1.944h3.28a1.944,1.944,0,0,0,1.944-1.944v-9.488C417.849,328.689,417.43,331.315,417.258,332.816Z" transform="translate(-369.179 -243.383)" fill="#454545"/>
      <path id="Path_309" data-name="Path 309" d="M451.248,148.6a1.565,1.565,0,0,0-1.544-1.185h-1.311a1.52,1.52,0,0,0-1.52,1.52v.934h-.695l.4.947h1.528a5.505,5.505,0,0,0,2.292-.5A1.519,1.519,0,0,0,451.248,148.6Z" transform="translate(-400.879 -81.695)" fill="#ed6262"/>
      <circle id="Ellipse_241" data-name="Ellipse 241" cx="1.911" cy="1.911" r="1.911" transform="translate(41.88 73.257)" fill="#ffbd49"/>
      <circle id="Ellipse_242" data-name="Ellipse 242" cx="1.404" cy="1.404" r="1.404" transform="translate(38.544 75.272)" fill="#ffdb6f"/>
      <path id="Path_310" data-name="Path 310" d="M161.053,255.324l-2.194,3.821H141.033l-2.194-3.821Z" transform="translate(-124.743 -178.647)" fill="#6f6f6f"/>
      <path id="Path_311" data-name="Path 311" d="M46.677,218.171c-.033-.05-.069-.1-.109-.148,0,0-.213-.71-1.467-1.186a16.671,16.671,0,0,1-2.186-1.048,7.24,7.24,0,0,0-1.348-.592,2.755,2.755,0,0,0-3.576,3.058c.011.058.024.115.036.173a1.961,1.961,0,0,0,1.191,1.336,24.207,24.207,0,0,0,5.472,1.462A2,2,0,0,0,46.677,218.171Z" transform="translate(-34.093 -142.477)" fill="#fff"/>
      <path id="Path_312" data-name="Path 312" d="M46.609,327.857H43.894a.458.458,0,0,0-.458.458v2.714a.459.459,0,0,0,.783.324l2.714-2.714A.459.459,0,0,0,46.609,327.857Z" transform="translate(-39.026 -243.816)" fill="#ffe21f"/>
      <path id="Path_313" data-name="Path 313" d="M63.148,332.589c-2.826-4.89-6.076-4.737-6.076-4.737H33.079S29.831,327.7,27,332.589H22.119l.06.63a1.146,1.146,0,0,0,1.142,1.041H66.832a1.146,1.146,0,0,0,1.142-1.041l.06-.63Z" transform="translate(-19.874 -243.811)" fill="#777"/>
      <path id="Path_314" data-name="Path 314" d="M16.927,333.849a1.147,1.147,0,0,1-1.139-1.016c-.172-1.5-.592-4.129-.807-5.441v9.488a1.944,1.944,0,0,0,1.944,1.944h3.28a1.944,1.944,0,0,0,1.944-1.944v-3.031H16.927Z" transform="translate(-13.461 -243.398)" fill="#454545"/>
      <path id="Path_315" data-name="Path 315" d="M4.41,149.87v-.934a1.52,1.52,0,0,0-1.519-1.52H1.581A1.566,1.566,0,0,0,.037,148.6a1.519,1.519,0,0,0,.851,1.715,5.509,5.509,0,0,0,2.292.5H4.707l.4-.947h-.7Z" transform="translate(0 -81.695)" fill="#ed6262"/>
      <circle id="Ellipse_243" data-name="Ellipse 243" cx="1.911" cy="1.911" r="1.911" transform="translate(4.703 73.257)" fill="#ffbd49"/>
      <circle id="Ellipse_244" data-name="Ellipse 244" cx="1.404" cy="1.404" r="1.404" transform="translate(9.057 75.272)" fill="#ffdb6f"/>
      <g id="Group_110" data-name="Group 110" transform="translate(14.469 85.378)">
        <path id="Path_316" data-name="Path 316" d="M163.408,341.029H143.091a.575.575,0,1,0,0,1.15h20.316a.575.575,0,0,0,0-1.15Z" transform="translate(-142.516 -341.029)" fill="#6f6f6f"/>
        <path id="Path_317" data-name="Path 317" d="M163.408,363.635H143.091a.575.575,0,1,0,0,1.15h20.316a.575.575,0,0,0,0-1.15Z" transform="translate(-142.516 -361.34)" fill="#6f6f6f"/>
      </g>
      <path id="Path_318" data-name="Path 318" d="M92.288,88.351v.2a1.391,1.391,0,0,1-1.459,1.394,1.455,1.455,0,0,1-1.315-1.474V85.642a1.166,1.166,0,0,0-1.221-1.156h-.047a1.168,1.168,0,0,0-1.221,1.156V88.2a1.392,1.392,0,0,1-1.474,1.378,1.44,1.44,0,0,1-1.315-1.459V85.9A1.234,1.234,0,0,0,83,84.674H82.9a1.164,1.164,0,0,0-1.158,1.158v2.891a1.406,1.406,0,0,1-1.474,1.394,1.442,1.442,0,0,1-1.3-1.474V84.767A1.105,1.105,0,0,0,77.8,83.674H77.7a1.166,1.166,0,0,0-1.172,1.158v3.962a1.387,1.387,0,0,1-2.772.047V85.516a1.456,1.456,0,0,0-1.315-1.474,1.392,1.392,0,0,0-1.459,1.394l-.016,3.072A1.392,1.392,0,0,1,69.512,89.9,1.443,1.443,0,0,1,68.2,88.485v-3.6a1.443,1.443,0,0,0-1.311-1.462A1.4,1.4,0,0,0,65.43,84.81v3.776a1.4,1.4,0,0,1-1.467,1.358,1.442,1.442,0,0,1-1.3-1.474V85.642a1.18,1.18,0,0,0-1.237-1.156H61.4a1.172,1.172,0,0,0-1.237,1.156V88.2A1.378,1.378,0,0,1,58.7,89.577a1.41,1.41,0,0,1-1.292-1.271c-.733,1.517-1.459,3.16-2.164,4.915a249.38,249.38,0,0,0,39.171,0Q93.362,90.581,92.288,88.351Z" transform="translate(-49.636 -24.194)" fill="#3aa2eb"/>
    </g>
  </g>
</svg>
